<svg xmlns="http://www.w3.org/2000/svg" width="512" height="512" viewBox="0 0 512 512"><defs><style>.a{fill:#030202;}.b{fill:#fc8f2a;}.c{fill:#ee5924;}.d{fill:#ef5924;}.e{fill:#e4e4e4;}.f{fill:#1a1a1a;}.g{fill:#e3e3e3;}.h{fill:#ed5923;}.i{fill:#191919;}.j{fill:#ec5823;}.k{fill:#040201;}</style></defs><path class="a" d="M0,199.9V167a10.58,10.58,0,0,0,1-2.47c4.72-37.94,18.67-72,44.92-100.06,48.67-52,108.36-70,177.72-53.92,34.4,8,63.35,26.12,87.36,52a170.65,170.65,0,0,1,37.65,63.81c1.58,4.85,4,6.08,8.7,6.53,10.56,1,21.37,1.68,31.51,4.51,63.87,17.88,103.85,59.09,119.25,123.67,1.62,6.81,2.61,13.78,3.89,20.67V309.7a14.48,14.48,0,0,0-1.08,3c-2.23,18.62-7.16,36.52-15.8,53.15Q458,437.36,378.65,453.28a32,32,0,0,0-12.41,5.48c-26.72,19.89-56,34.28-88.45,42.07-25.17,6-50.76,6.65-76.43,6.24a245.1,245.1,0,0,1-75.86-13c-33.67-11.49-61.84-32-89.18-53.77C24,430.4,23.1,413.52,34.45,402.57c12.19-11.78,24.81-23.19,38-33.86,10.11-8.19,21.38-15,32.29-22.49-.61-.34-1.4-.84-2.22-1.25C45,316.05,11.21,270,1.76,206.31A54.94,54.94,0,0,0,0,199.9ZM399,429.49c7.71-3.35,15.72-6.14,23.06-10.16a134,134,0,0,0,43.29-38.06c1.21-1.62,1.05-5.18.11-7.16-.79-1.68-3.63-3.33-5.59-3.37q-20.44-.42-40.91,0a7.74,7.74,0,0,0-5.62,3.44c-5.27,9.79-10.17,19.79-15,29.8-.81,1.68-1.66,4.19-1,5.6,3.11,6.51,3.09,13.09,1.63,19.87l-.21.45ZM212.84,490c29.23.61,57.37-3.12,84.74-12.77,30.86-10.88,56.34-30.34,81.82-49.87,4.59-3.51,5-9.19.61-13-16.56-14.38-32.38-29.93-50.39-42.26-39.74-27.18-84.37-38.17-132.53-34.56-30.51,2.29-58.91,11.28-85.78,25.71-23.91,12.85-43.37,31.25-63,49.46-6.26,5.8-6,10.91.76,16.06C57.27,435,65.5,441.2,73.82,447.29a225.22,225.22,0,0,0,48.09,27.12C151.21,486.33,181.77,490.73,212.84,490Zm-6.92-346.25c-30.62-34.11-45.35-74.63-46.56-120.13-24.67-.25-73.21,22-87.4,39.4L179.38,170.23C187.87,161.77,196.68,153,205.92,143.75ZM166.08,184,58.1,76.22C36.33,100.86,23,129.76,18.68,163.59c46.53,1.18,87.06,16.12,121.25,46.59Zm-108,106.6,69-68.84c-31.07-27.25-67.81-40.39-109.79-41C17.32,223,31,259.51,58.13,290.59ZM176.46,22c.95,42,14,78.76,41.17,109.17l68.94-68.73C255.24,35.43,218.67,21.49,176.46,22Zm58.41,184.32c10.51,2.12,13.28,9.92,16.17,17.85,3.11,8.52,6.48,17,10.18,25.24a11.73,11.73,0,0,0,5.58,5.39c8.92,3.93,18.1,7.27,27.07,11.09a6.78,6.78,0,0,0,7.28-.8q18.32-12.43,36.87-24.54a6.11,6.11,0,0,0,3.12-6c-.16-8.63.14-17.28-.2-25.91a8.7,8.7,0,0,0-3.13-5.89c-13.32-9.62-26.8-19-40.35-28.32-4.19-2.88-7.91-5.84-7.67-11.9C267.92,172.66,250.11,186.89,234.87,206.32ZM180,321.4a159.51,159.51,0,0,0-39.17-86.07q-34.61,34.57-68.85,68.76c7.75,8.24,28.71,21.48,41.89,27.44,8.78,4,17.05,5.77,25.78.43a16,16,0,0,1,4.27-1.34C155.76,327.57,167.65,324.54,180,321.4Zm314.41-22.1c-8.22,7.15-13.77,1.34-19.65-2.55-12.2-8.05-24.41-16.1-36.47-24.36-2.64-1.8-4.68-2.19-7.55-.61-6.26,3.44-12.81,6.34-19,9.87a10.17,10.17,0,0,0-4.39,5.33c-4.34,14.56-8.21,29.26-12.58,43.82-.84,2.8-.16,4.23,1.66,6,4.8,4.61,9.3,9.55,14.28,14a11.5,11.5,0,0,0,6.83,2.75c15.83.23,31.67.29,47.5,0,6-.1,10.95.76,13.4,7.3A142.52,142.52,0,0,0,494.36,299.3ZM409.8,163c.48,5.53-3.06,8.35-7,11.09C389.1,183.48,375.47,193,362,202.68a8.67,8.67,0,0,0-3.16,5.87c-.35,8.8-.29,17.62,0,26.42a7.36,7.36,0,0,0,2.62,5.15q18,12.42,36.48,24.28a7.77,7.77,0,0,0,6.17.4c6.91-2.81,13.71-5.92,20.33-9.35a9.76,9.76,0,0,0,4.45-5.23q7.29-24.18,14-48.54c1.36-5,3.31-9,9-10.2C438.92,178.77,422,167.28,409.8,163Zm-60,164.73c7.83,0,15.66-.17,23.48.08,3.25.1,4.77-1,5.62-4.06q5.39-19.63,11.12-39.18c.77-2.63.51-4.21-1.9-5.78C376.3,271,364.66,263,352.77,255.43a6.89,6.89,0,0,0-6.07.14c-11.64,7.39-23,15.13-34.57,22.68-2.54,1.66-3.39,3.25-2.37,6.52,4,12.8,7.64,25.71,11.12,38.66.85,3.17,2.13,4.39,5.41,4.31C334.11,327.56,342,327.69,349.78,327.69ZM230.74,145c6.92,5,13.86,9.84,20.58,15,3,2.25,5.11,2.29,8.28.12a154.61,154.61,0,0,1,57.93-24.42c5.12-1,10.26-1.88,15.56-2.84-7.39-21.68-18.26-40.65-33.11-57ZM207.29,319.69A232.71,232.71,0,0,1,307.61,340c-5.43-19-10.48-37-15.74-54.82-.36-1.21-2.22-2.27-3.61-2.84-8.71-3.6-17.55-6.89-26.19-10.62-3.19-1.38-5-.64-7.27,1.69-10.47,10.69-21.28,21.05-31.65,31.83-5,5.22-10,8.35-17.46,3.07C206.29,312.54,206.76,315.93,207.29,319.69ZM494.93,277.8c-3.17-11.42-5.45-23.18-9.77-34.15S474.42,222.46,469,211.87c-1.76-3.43-4.81-3.31-7.73-2.82a4.9,4.9,0,0,0-3.19,2.89q-6.27,20.88-12.11,41.91a4,4,0,0,0,1.13,3.52c12.6,8.57,25.25,17.08,38,25.37C488.61,285,494,281.89,494.93,277.8Zm-306.41,2.41c.66-4.89.71-10,2.1-14.64,4-13.62,8.67-27.07,12.95-40.62.48-1.5,1-3.95.2-4.76-8-8.34-16.25-16.44-23.86-24l-27.22,27C167.73,239.82,179.39,259.14,188.52,280.21Zm161.34-90.28,41.93-29.31c-2.24-2.38-4-5.9-6.22-6.31-11.85-2.18-23.83-4.65-35.81-4.89-10.8-.2-21.65,2.37-32.48,3.68-4.95.6-7.83,3.05-7.75,8.62Zm49.24,174c-5.33-5.27-10.37-10.57-15.79-15.45a11.43,11.43,0,0,0-6.78-2.87c-17.45-.23-34.92-.13-52.38-.12-1.2,0-2.4.11-3.6.17,23.74,13,43.72,30.29,63.15,48.89ZM205.2,287.41c.69.61,2.06,2.59,3.87,3.16a6.53,6.53,0,0,0,5.45-1.07c9.81-9.45,19.32-19.21,29.07-28.73,2-2,2.11-3.47,1-6-3.81-9-7.15-18.17-10.93-27.17a15.09,15.09,0,0,0-4.22-5.33c-2.26-1.89-4.22-1.7-5.93,1.36C212.71,243,206.71,263.75,205.2,287.41Zm14.05-130.06L193,183.47l21,21.12,26.65-30.75Z"/><path class="b" d="M212.84,490c-31.07.73-61.63-3.67-90.93-15.59a225.22,225.22,0,0,1-48.09-27.12C65.5,441.2,57.27,435,49.06,428.73c-6.77-5.15-7-10.26-.76-16.06,19.64-18.21,39.1-36.61,63-49.46,26.87-14.43,55.27-23.42,85.78-25.71,48.16-3.61,92.79,7.38,132.53,34.56,18,12.33,33.83,27.88,50.39,42.26,4.42,3.85,4,9.53-.61,13-25.48,19.53-51,39-81.82,49.87C270.21,486.88,242.07,490.61,212.84,490ZM128,422.25c0,2.72-.13,5.22,0,7.69.31,5.32,3.59,8.68,8.35,8.76,5,.08,8.37-3.37,8.62-9,.11-2.57,0-5.15,0-7.68h16.9c.67,6.74-1.93,16,8.38,16.36,11.34.38,7.91-9.83,9.25-16.39H196c.81,6.65-1.86,16,8.38,16.39,11.51.48,7.93-9.79,9.34-16.39H230c1,6.7-1.87,16.39,8.91,16.4s7.68-9.83,9-16.37h16.3c1,6.61-1.91,16.07,8.5,16.37,11.24.32,8-9.81,9.42-16.42,6.76-.75,16.15,1.77,16.16-8.62,0-10.59-9.67-8-16.38-9-.68-6.82,1.47-16.12-8.64-16.28-10.6-.17-8.21,9.48-9.06,16.27H247.64c-.5-6.83,1.58-15.86-8.18-16.25-11-.43-8.56,9.45-9.41,16.2H213.44c-.58-6.82,1.71-15.9-8.19-16.2-10.94-.34-8.45,9.55-9.36,16.18H179.46c-1.09-12.93-2.77-16.67-8.36-16.36-11,.6-8.4,9.78-9.27,16.4H145.32c-1-13-2.61-16.67-8.3-16.4-11.13.54-8.44,9.74-9.28,16.56-6.86.71-15.33-1.65-16.63,8.55C110.4,418.76,114.06,420.62,128,422.25Z"/><path class="c" d="M205.92,143.75c-9.24,9.23-18,18-26.54,26.48L72,63c14.19-17.45,62.73-39.65,87.4-39.4C160.57,69.12,175.3,109.64,205.92,143.75Z"/><path class="d" d="M166.08,184l-26.15,26.19c-34.19-30.47-74.72-45.41-121.25-46.59C23,129.76,36.33,100.86,58.1,76.22Z"/><path class="d" d="M58.13,290.59C31,259.51,17.32,223,17.38,180.71c42,.65,78.72,13.79,109.79,41Z"/><path class="d" d="M176.46,22c42.21-.51,78.78,13.43,110.11,40.44l-68.94,68.73C190.47,100.76,177.41,64,176.46,22Z"/><path class="e" d="M234.87,206.32c15.24-19.43,33.05-33.66,54.92-43.81-.24,6.06,3.48,9,7.67,11.9,13.55,9.3,27,18.7,40.35,28.32a8.7,8.7,0,0,1,3.13,5.89c.34,8.63,0,17.28.2,25.91a6.11,6.11,0,0,1-3.12,6q-18.57,12.06-36.87,24.54a6.78,6.78,0,0,1-7.28.8c-9-3.82-18.15-7.16-27.07-11.09a11.73,11.73,0,0,1-5.58-5.39c-3.7-8.27-7.07-16.72-10.18-25.24C248.15,216.24,245.38,208.44,234.87,206.32Z"/><path class="c" d="M180,321.4c-12.3,3.14-24.19,6.17-36.08,9.22A16,16,0,0,0,139.6,332c-8.73,5.34-17,3.54-25.78-.43-13.18-6-34.14-19.2-41.89-27.44q34.33-34.29,68.85-68.76A159.51,159.51,0,0,1,180,321.4Z"/><path class="e" d="M494.36,299.3a142.52,142.52,0,0,1-16,61.53c-2.45-6.54-7.43-7.4-13.4-7.3-15.83.26-31.67.2-47.5,0a11.5,11.5,0,0,1-6.83-2.75c-5-4.41-9.48-9.35-14.28-14-1.82-1.76-2.5-3.19-1.66-6,4.37-14.56,8.24-29.26,12.58-43.82a10.17,10.17,0,0,1,4.39-5.33c6.2-3.53,12.75-6.43,19-9.87,2.87-1.58,4.91-1.19,7.55.61,12.06,8.26,24.27,16.31,36.47,24.36C480.59,300.64,486.14,306.45,494.36,299.3Z"/><path class="e" d="M409.8,163c12.19,4.32,29.12,15.81,42,28.52-5.68,1.18-7.63,5.21-9,10.2q-6.66,24.36-14,48.54a9.76,9.76,0,0,1-4.45,5.23c-6.62,3.43-13.42,6.54-20.33,9.35a7.77,7.77,0,0,1-6.17-.4q-18.44-11.83-36.48-24.28a7.36,7.36,0,0,1-2.62-5.15c-.26-8.8-.32-17.62,0-26.42a8.67,8.67,0,0,1,3.16-5.87c13.46-9.71,27.09-19.2,40.75-28.63C406.74,171.31,410.28,168.49,409.8,163Z"/><path class="f" d="M349.78,327.69c-7.83,0-15.67-.13-23.49.05-3.28.08-4.56-1.14-5.41-4.31-3.48-12.95-7.15-25.86-11.12-38.66-1-3.27-.17-4.86,2.37-6.52,11.53-7.55,22.93-15.29,34.57-22.68a6.89,6.89,0,0,1,6.07-.14C364.66,263,376.3,271,388.1,278.75c2.41,1.57,2.67,3.15,1.9,5.78q-5.76,19.53-11.12,39.18c-.85,3.08-2.37,4.16-5.62,4.06C365.44,327.52,357.61,327.69,349.78,327.69Z"/><path class="c" d="M230.74,145,300,75.84c14.85,16.36,25.72,35.33,33.11,57-5.3,1-10.44,1.83-15.56,2.84a154.61,154.61,0,0,0-57.93,24.42c-3.17,2.17-5.33,2.13-8.28-.12C244.6,154.85,237.66,150,230.74,145Z"/><path class="g" d="M207.29,319.69c-.53-3.76-1-7.15-1.6-11.42,7.47,5.28,12.44,2.15,17.46-3.07,10.37-10.78,21.18-21.14,31.65-31.83,2.27-2.33,4.08-3.07,7.27-1.69,8.64,3.73,17.48,7,26.19,10.62,1.39.57,3.25,1.63,3.61,2.84,5.26,17.86,10.31,35.78,15.74,54.82A232.71,232.71,0,0,0,207.29,319.69Z"/><path class="f" d="M399,429.46c1.46-6.78,1.48-13.36-1.63-19.87-.68-1.41.17-3.92,1-5.6,4.85-10,9.75-20,15-29.8a7.74,7.74,0,0,1,5.62-3.44q20.44-.45,40.91,0c2,0,4.8,1.69,5.59,3.37.94,2,1.1,5.54-.11,7.16a134,134,0,0,1-43.29,38.06c-7.34,4-15.35,6.81-23.06,10.16Z"/><path class="f" d="M494.93,277.8c-.94,4.09-6.32,7.19-9.78,4.94-12.79-8.29-25.44-16.8-38-25.37a4,4,0,0,1-1.13-3.52q5.85-21,12.11-41.91a4.9,4.9,0,0,1,3.19-2.89c2.92-.49,6-.61,7.73,2.82,5.41,10.59,11.82,20.78,16.15,31.78S491.76,266.38,494.93,277.8Z"/><path class="h" d="M188.52,280.21c-9.13-21.07-20.79-40.39-35.83-57.08l27.22-27c7.61,7.59,15.86,15.69,23.86,24,.77.81.28,3.26-.2,4.76-4.28,13.55-8.9,27-12.95,40.62C189.23,270.24,189.18,275.32,188.52,280.21Z"/><path class="f" d="M349.86,189.93l-40.33-28.21c-.08-5.57,2.8-8,7.75-8.62,10.83-1.31,21.68-3.88,32.48-3.68,12,.24,24,2.71,35.81,4.89,2.27.41,4,3.93,6.22,6.31Z"/><path class="e" d="M399.1,363.94l-15.4,30.62c-19.43-18.6-39.41-35.91-63.15-48.89,1.2-.06,2.4-.17,3.6-.17,17.46,0,34.93-.11,52.38.12a11.43,11.43,0,0,1,6.78,2.87C388.73,353.37,393.77,358.67,399.1,363.94Z"/><path class="i" d="M205.2,287.41c1.51-23.66,7.51-44.42,18.34-63.8,1.71-3.06,3.67-3.25,5.93-1.36a15.09,15.09,0,0,1,4.22,5.33c3.78,9,7.12,18.19,10.93,27.17,1.08,2.55,1,4.05-1,6-9.75,9.52-19.26,19.28-29.07,28.73a6.53,6.53,0,0,1-5.45,1.07C207.26,290,205.89,288,205.2,287.41Z"/><path class="j" d="M219.25,157.35l21.35,16.49L214,204.59l-21-21.12Z"/><path class="f" d="M399,429.49l-.24.42.21-.45Z"/><path class="k" d="M128,422.25c-14-1.63-17.62-3.49-16.91-9.18,1.3-10.2,9.77-7.84,16.63-8.55.84-6.82-1.85-16,9.28-16.56,5.69-.27,7.31,3.41,8.3,16.4h16.51c.87-6.62-1.76-15.8,9.27-16.4,5.59-.31,7.27,3.43,8.36,16.36h16.43c.91-6.63-1.58-16.52,9.36-16.18,9.9.3,7.61,9.38,8.19,16.2h16.61c.85-6.75-1.54-16.63,9.41-16.2,9.76.39,7.68,9.42,8.18,16.25h16.57c.85-6.79-1.54-16.44,9.06-16.27,10.11.16,8,9.46,8.64,16.28,6.71,1,16.4-1.6,16.38,9,0,10.39-9.4,7.87-16.16,8.62-1.38,6.61,1.82,16.74-9.42,16.42-10.41-.3-7.5-9.76-8.5-16.37h-16.3c-1.29,6.54,1.89,16.39-9,16.37S231,428.73,230,422H213.69c-1.41,6.6,2.17,16.87-9.34,16.39-10.24-.43-7.57-9.74-8.38-16.39H179.56c-1.34,6.56,2.09,16.77-9.25,16.39-10.31-.34-7.71-9.62-8.38-16.36H145c0,2.53.09,5.11,0,7.68-.25,5.59-3.62,9-8.62,9-4.76-.08-8-3.44-8.35-8.76C127.89,427.47,128,425,128,422.25Z"/></svg>